<svg xmlns="http://www.w3.org/2000/svg" viewBox="328.25 131.05 448.5 451.5">
	<defs>
		<linearGradient id="a" x1="328.25" y1="356.8" x2="776.75" y2="356.8" gradientUnits="userSpaceOnUse">
			<stop offset=".15" stop-color="#0084b1"/>
			<stop offset=".85" stop-color="#00a356"/>
		</linearGradient>
	</defs>
	<g data-name="Ebene 10">
		<path fill="url(#a)" d="M328.25 131.05h448.5v451.5h-448.5z"/>
		<g>
			<path d="M697.12 406.91a15.07 15.07 0 1 1-27.16 11.16h-54.59a79.88 79.88 0 0 1 .85 8.29c1.24 27.67-28.37 72.79-38.51 72.25-17.53-.93-53.8 2.22-58.35-1.27-9.4-7.21-24.37-23.91-33.27-61.78a71.39 71.39 0 0 1-1.72-17.49h-167c1.63 72.91-21 152.12 6.95 171.47 68.51 47.42 399.82 70.22 465.51-4.19 47.5-53.81 57.23-203.45 32.07-311.07zm-176.11 96.91c3.4 0 33.62-.68 44.51-.68 15.86 0 19.55-.34 16.26 6.9-3.67 8-1.09-2.7-60.39 2.23-4.97.41-3.78-8.45-.38-8.45zm-12.8 29.09c11.45-16.64 10.67-16.16 16.11-16.79 9.54-1.12 20-.64 30-.42 34.13.73 24.38-.32 35.42 11.85 10.8 11.9 7.22 9.19-26.44 9.25-43.12.11-58.54 1.11-55.09-3.89zm17.83 18.41c-25.28-.09-31.82 1.12-25.93-6 7-8.47-3.13-3.52 52.51-3.91 48.39-.34 42.69-2 47.7 5.13 4.58 6.52-.39 5.06-74.28 4.79z"/>
			<path d="M454.54 381.63a15.06 15.06 0 0 1-29.73 0H317.43c-.23 10.58-.28 21.13-.11 31.55h167.22c.77-10.82 3.34-21.64 6.35-31.55zM318.42 354.76c-.38 7.3-.67 14.64-.87 22h107.22a15.06 15.06 0 0 1 29.73 0h38c2.73-8.36 5.62-15.89 7.77-22z"/>
			<path d="M785.16 127.69c-110.21-90.42-421.56-31.78-462.89.53-19.29 15.1 1.27 137.19-3.58 221.69H501.9c1.26-4 1.93-7 1.61-8.81-3.14-17.35-30.07-22.95-22.76-25.27 17.53-5.57 55.08 1.49 90.27.87 33-.59 45.78-3.21 48.63.11 2.63 3.07-12 2.52-21.55 25.7-.69 1.67-.75 4.2-.35 7.4h40.68a10.69 10.69 0 1 1 0 4.89H598.6c3.12 14.9 12.1 38.63 15.92 58.42h55.44a15 15 0 0 1 23.72-9.75l126.86-134.85c-10-38.86-6.28-117.05-35.38-140.93zM628.73 304.63c-7 10.45-4.79 1.2-43 5.71-15.06 1.78-32.6.26-54.77-2-66.33-6.67-50 9.15-59.66-6.09-7.72-12.23 12.91-10.22 33.14-10.22s57.86 5.5 81.81 2.93c40.65-4.32 49.08-.11 42.48 9.67zm44.45-104.27c-.57 2.46-9.07 3.2-37.44 28.81-5.62 5.07-29.35 58.34-31.73 58.33-9.6-.06-16 1.52-18.65.91-2.2-.49 6.53-6.49 18.52-26.36 18.9-31.33 17-33.69 24.33-39.19s33.69-20.21 44.06-27.62c2.4-1.72 1.72 1.67.91 5.12z"/>
			<circle cx="684.78" cy="415.62" r="10.69"/>
			<circle cx="439.63" cy="379.19" r="10.69"/>
			<path d="M528.95 487.7c-4.91 0-30.1-37.44-30.1-69.74 0-37.22 15.17-51.95 18.2-68.89 2.27-12.64-13.06-23.4-4.4-22 64.95 10.74 83.3-6.2 76.49 3.71-25.58 37.22 10 26.28 12.94 87.5.82 16.92-4.07 40.73-26.4 67.52-2.07 2.52-36.89 1.9-46.73 1.9z"/>
		</g>
	</g>
</svg>
